<svg width="30" height="22" viewBox="0 0 30 22" fill="none" xmlns="http://www.w3.org/2000/svg">
<path d="M29.7 5.4125C29.7 5.4125 29.4 3.3125 28.5 2.4125C27.4 1.2125 26.1 1.2125 25.5 1.1125C21.3 0.8125 15 0.8125 15 0.8125C15 0.8125 8.7 0.8125 4.5 1.1125C3.9 1.2125 2.6 1.2125 1.5 2.4125C0.6 3.3125 0.3 5.4125 0.3 5.4125C0.3 5.4125 0 7.8125 0 10.2125V12.4125C0 14.8125 0.3 17.3125 0.3 17.3125C0.3 17.3125 0.6 19.4125 1.5 20.3125C2.6 21.5125 4.1 21.5125 4.8 21.6125C7.2 21.7125 15 21.8125 15 21.8125C15 21.8125 21.3 21.8125 25.5 21.5125C26.1 21.4125 27.4 21.4125 28.5 20.2125C29.4 19.3125 29.7 17.2125 29.7 17.2125C29.7 17.2125 30 14.8125 30 12.4125V10.2125C30 7.8125 29.7 5.4125 29.7 5.4125ZM11.9 15.2125V6.8125L20 11.0125L11.9 15.2125Z" fill="white"/>
</svg>
