<svg width="27" height="17" viewBox="0 0 27 17" fill="none" xmlns="http://www.w3.org/2000/svg">
<path fill-rule="evenodd" clip-rule="evenodd" d="M8.81831 7.2727V10.1818H13.6062C13.4244 11.4545 12.1516 13.8181 8.81831 13.8181C5.90923 13.8181 3.54561 11.3939 3.54561 8.48482C3.54561 5.57574 5.90923 3.1515 8.81831 3.1515C10.4547 3.1515 11.5456 3.87877 12.2122 4.48483L14.5153 2.24242C13.0001 0.848481 11.1213 0 8.81831 0C4.15166 0 0.333496 3.81817 0.333496 8.48482C0.333496 13.1515 4.15166 16.9696 8.81831 16.9696C13.7274 16.9696 16.9395 13.5151 16.9395 8.66663C16.9395 8.12118 16.8789 7.69694 16.8183 7.2727H8.81831Z" fill="#EEEEEE"/>
<path fill-rule="evenodd" clip-rule="evenodd" d="M26.9997 7.27262H24.5755V4.84839H22.1513V7.27262H19.7271V9.69685H22.1513V12.1211H24.5755V9.69685H26.9997V7.27262Z" fill="#EEEEEE"/>
</svg>
