<svg width="21" height="17" viewBox="0 0 21 17" fill="none" xmlns="http://www.w3.org/2000/svg">
<path d="M21 1.9205C20.2089 2.27615 19.4178 2.48954 18.4829 2.6318C19.3459 2.06276 20.0651 1.28033 20.4247 0.284519C19.5616 0.782427 18.6267 1.13808 17.6918 1.35146C16.9007 0.497908 15.75 0 14.5274 0C12.1541 0 10.1404 1.9205 10.1404 4.33891C10.1404 4.69456 10.2123 4.97908 10.2842 5.33473C6.68836 5.19247 3.45205 3.41423 1.29452 0.853556C0.934932 1.35146 0.719178 2.06276 0.719178 2.84519C0.719178 4.33891 1.51027 5.69038 2.66096 6.40167C1.94178 6.40167 1.29452 6.18828 0.719178 5.83264V5.90377C0.719178 7.96653 2.22945 9.74477 4.24315 10.1004C3.88356 10.1715 3.52397 10.2427 3.09247 10.2427C2.80479 10.2427 2.51712 10.2427 2.30137 10.1715C2.87671 11.8787 4.4589 13.159 6.40068 13.159C4.89041 14.2971 3.02055 15.0084 1.00685 15.0084C0.64726 15.0084 0.287671 15.0084 0 14.9372C1.72603 16.2887 4.0274 17 6.4726 17C14.4555 17 18.8425 10.4561 18.8425 4.76569V4.19665C19.7055 3.55649 20.4247 2.84519 21 1.9205Z" fill="#EEEEEE"/>
</svg>
